<svg xmlns="http://www.w3.org/2000/svg" viewBox="0 0 900 1400" fill="none">
  <defs>
    <linearGradient id="skin" x1="450" y1="480" x2="450" y2="1240" gradientUnits="userSpaceOnUse">
      <stop stop-color="#FFF0EA"/>
      <stop offset="1" stop-color="#F5D2C7"/>
    </linearGradient>
  </defs>
  <path d="M291 552C249 612 228 697 238 797C247 890 219 970 177 1057C160 1092 174 1138 210 1147C242 1154 273 1136 286 1107C334 996 366 876 358 770C353 706 365 624 397 570L291 552Z" fill="url(#skin)"/>
  <path d="M609 552C651 612 672 697 662 797C653 890 681 970 723 1057C740 1092 726 1138 690 1147C658 1154 627 1136 614 1107C566 996 534 876 542 770C547 706 535 624 503 570L609 552Z" fill="url(#skin)"/>
  <path d="M186 1142C202 1166 229 1174 249 1168C237 1188 214 1200 193 1196C173 1192 162 1170 166 1150L186 1142Z" fill="#F1C4B6"/>
  <path d="M714 1142C698 1166 671 1174 651 1168C663 1188 686 1200 707 1196C727 1192 738 1170 734 1150L714 1142Z" fill="#F1C4B6"/>
</svg>
