<svg width="444" height="700" viewBox="0 0 444 700" fill="none" xmlns="http://www.w3.org/2000/svg">
  <path d="M190 405C206 393 238 393 254 405L266 432C245 444 199 444 178 432L190 405Z" fill="#85A2E8"/>
  <path d="M222 428C284 428 326 459 335 520C302 546 142 546 109 520C118 459 160 428 222 428Z" fill="#6F8FDD"/>
  <path d="M196 418L222 402L248 418L222 434L196 418Z" fill="#FF9FC4"/>
  <path d="M151 482C176 500 268 500 293 482" stroke="#5579D2" stroke-width="6" stroke-linecap="round"/>
  <path d="M132 523C165 545 279 545 312 523" stroke="#5579D2" stroke-width="6" stroke-linecap="round"/>
</svg>
